<svg width="114" height="98" viewBox="0 0 114 98" fill="none" xmlns="http://www.w3.org/2000/svg">
<path fill-rule="evenodd" clip-rule="evenodd" d="M105.572 21.0695C105.572 22.0161 106.359 22.803 107.305 22.803C108.254 22.803 109.039 22.0161 109.039 21.0695C109.039 20.1211 108.252 19.3359 107.304 19.3359C106.357 19.3359 105.572 20.1211 105.572 21.0695ZM106.973 55.0626C106.991 55.172 107.07 55.251 107.18 55.251C107.295 55.251 107.374 55.172 107.386 55.0505C107.587 53.4281 107.666 53.3855 109.312 53.1182C109.44 53.0999 109.519 53.0331 109.519 52.9177C109.519 52.8022 109.44 52.7293 109.337 52.7111L109.265 52.6974C107.675 52.3949 107.584 52.3775 107.386 50.7788C107.374 50.6573 107.295 50.5783 107.18 50.5783C107.07 50.5783 106.991 50.6573 106.973 50.7727C106.766 52.4194 106.706 52.4741 105.022 52.7111C104.919 52.7232 104.84 52.8022 104.84 52.9177C104.84 53.027 104.919 53.0999 105.022 53.1182L105.055 53.1245C106.706 53.4403 106.762 53.4509 106.973 55.0626ZM16.6937 66.5635C16.7352 66.8121 16.9147 66.9917 17.1633 66.9917C17.4257 66.9917 17.6052 66.8121 17.6328 66.5359C18.0886 62.8485 18.2681 62.7518 22.0108 62.1442C22.3008 62.1027 22.4803 61.9508 22.4803 61.6884C22.4803 61.426 22.3008 61.2603 22.066 61.2189L21.9035 61.1879C18.2897 60.5003 18.082 60.4608 17.6328 56.8271C17.6052 56.5509 17.4257 56.3714 17.1633 56.3714C16.9147 56.3714 16.7352 56.5509 16.6937 56.8133C16.2242 60.5559 16.0861 60.6802 12.2605 61.2189C12.0258 61.2465 11.8462 61.426 11.8462 61.6884C11.8462 61.937 12.0258 62.1027 12.2605 62.1442L12.3355 62.1585C16.0877 62.8763 16.2135 62.9003 16.6937 66.5635ZM3.42898 78.1443C3.30939 78.1443 3.22302 78.058 3.20309 77.9384C2.97208 76.1761 2.91155 76.1645 1.10646 75.8192H1.10646L1.07041 75.8123C0.957464 75.7924 0.871094 75.7127 0.871094 75.5931C0.871094 75.4669 0.957464 75.3805 1.07041 75.3672C2.91076 75.1081 2.9772 75.0483 3.20309 73.2478C3.22302 73.1216 3.30939 73.0352 3.42898 73.0352C3.55521 73.0352 3.64158 73.1216 3.65487 73.2544C3.87093 75.0025 3.97085 75.0215 5.70937 75.3523L5.78755 75.3672C5.9005 75.3871 5.98687 75.4669 5.98687 75.5931C5.98687 75.7193 5.9005 75.7924 5.76098 75.8123C3.96049 76.1047 3.87412 76.1512 3.65487 77.9251C3.64158 78.058 3.55521 78.1443 3.42898 78.1443Z" fill="url(#paint0_linear_43600_28656)"/>
<g clip-path="url(#clip0_43600_28656)">
<rect width="70.994" height="8.31512" transform="matrix(-1 0 0 1 99.9492 89.3691)" fill="url(#paint1_radial_43600_28656)"/>
<path d="M52.4492 74.2812V50.3152C49.6289 50.2804 46.9381 50.2447 44.1178 50.2117V74.1778L52.4492 74.2812Z" fill="#B6BED9"/>
<path d="M53.9727 48.0938V56.1778C50.2072 56.1778 46.4417 56.1778 42.6762 56.1778V48.0938C46.4417 48.0938 50.2072 48.0938 53.9727 48.0938Z" fill="#A1ACCF"/>
<path d="M53.9727 69.9277V78.0118C50.2072 78.0118 46.4417 78.0118 42.6762 78.0118V69.9277C46.4417 69.9277 50.2072 69.9277 53.9727 69.9277Z" fill="#A1ACCF"/>
<path d="M67.7109 74.2832V50.3171C64.8906 50.2824 62.1998 50.2466 59.3795 50.2137V74.1797L67.7109 74.2832Z" fill="#B6BED9"/>
<path d="M69.2344 48.0938V56.1778C65.4689 56.1778 61.7034 56.1778 57.9379 56.1778V48.0938C61.7034 48.0938 65.4689 48.0938 69.2344 48.0938Z" fill="#A1ACCF"/>
<path d="M69.2344 69.9297V78.0138C65.4689 78.0138 61.7034 78.0138 57.9379 78.0138V69.9297C61.7034 69.9297 65.4689 69.9297 69.2344 69.9297Z" fill="#A1ACCF"/>
<path d="M61.1793 25.5478C61.3232 16.7247 68.0484 9.67773 76.2573 9.67773H80.0014C71.7925 9.67773 65.0674 16.7247 64.9235 25.5478C64.7781 34.4669 71.4131 41.8232 79.7433 41.979C79.8329 41.9807 79.9224 41.9816 80.0117 41.9816H76.2676C76.1783 41.9816 76.0887 41.9807 75.9991 41.979C67.6689 41.8232 61.0339 34.4669 61.1793 25.5478Z" fill="#11AFFF"/>
<path d="M77.6925 37.7915H79.3851C85.4653 37.7915 90.4462 32.572 90.553 26.0372C90.6606 19.4312 85.7463 13.9823 79.5763 13.8672C79.5099 13.8661 79.4435 13.8652 79.3774 13.8652H77.6848C77.7509 13.8652 77.8172 13.8658 77.8836 13.8672C84.0536 13.9826 88.9679 19.4312 88.8603 26.0372C88.7538 32.572 83.7726 37.7915 77.6925 37.7915Z" fill="url(#paint2_linear_43600_28656)"/>
<path d="M77.6861 37.7915C71.5153 37.7915 66.5129 32.4354 66.5129 25.8284C66.5129 19.2213 71.5153 13.8652 77.6861 13.8652C83.8569 13.8652 88.8594 19.2213 88.8594 25.8284C88.8594 32.4354 83.8569 37.7915 77.6861 37.7915Z" fill="url(#paint3_linear_43600_28656)"/>
<path d="M64.296 25.5477C64.1506 34.4668 70.7856 41.8231 79.1158 41.979C87.4463 42.1345 94.3171 35.0306 94.4625 26.1115C94.6079 17.1924 87.9729 9.83578 79.6427 9.68025C71.3124 9.52443 64.4417 16.6286 64.2963 25.5477H64.296ZM68.2076 25.6209C68.3152 19.0149 73.4043 13.7532 79.5743 13.8686C85.7442 13.984 90.6585 19.4326 90.5509 26.0385C90.4433 32.6445 85.3542 37.9063 79.1842 37.7909C73.0143 37.6755 68.1 32.2269 68.2076 25.6209Z" fill="url(#paint4_linear_43600_28656)"/>
<path d="M78.0501 30.8411C78.3991 30.8411 78.6838 30.6758 78.895 30.3543L84.6529 21.3271C84.7723 21.1343 84.8917 20.8955 84.8917 20.6751C84.8917 20.2068 84.4876 19.8945 84.0468 19.8945C83.7713 19.8945 83.505 20.0598 83.3214 20.3629L78.0134 28.8024L75.3686 25.4964C75.1206 25.1749 74.8911 25.0739 74.6064 25.0739C74.1472 25.0739 73.7891 25.4504 73.7891 25.9096C73.7891 26.1392 73.8809 26.3688 74.037 26.5708L77.1685 30.3543C77.4348 30.6941 77.7012 30.8411 78.0501 30.8411Z" fill="white"/>
<path d="M82.5625 74.2832V50.3171C79.7422 50.2824 77.0514 50.2466 74.231 50.2137V74.1797L82.5625 74.2832Z" fill="#B6BED9"/>
<path d="M84.0859 48.0938V56.1778C80.3205 56.1778 76.555 56.1778 72.7895 56.1778V48.0938C76.555 48.0938 80.3205 48.0938 84.0859 48.0938Z" fill="#A1ACCF"/>
<path d="M84.0859 69.9297V78.0138C80.3205 78.0138 76.555 78.0138 72.7895 78.0138V69.9297C76.555 69.9297 80.3205 69.9297 84.0859 69.9297Z" fill="#A1ACCF"/>
<path d="M40.3549 79.6602H99.9492V84.3979H40.3549V79.6602Z" fill="#6E7EB4"/>
<path d="M27.4844 79.6602H40.3555V84.3979H27.4844V79.6602Z" fill="#B6BED9"/>
<path d="M45.4063 48.0938H93.9453V52.0105H45.4063V48.0938Z" fill="#C9CFE6"/>
<path d="M32.5352 48.0938H45.4062V52.0105H32.5352V48.0938Z" fill="#ECEEF5"/>
<path d="M45.4063 74.2832H93.9453V79.6997H45.4063V74.2832Z" fill="#D9DDEB"/>
<path d="M32.5338 74.2832H45.5312V79.6997H32.5338V74.2832Z" fill="#ECEEF5"/>
<path d="M32.5336 48.0929H45.4046L69.6719 31.0605L62.7046 33.2174L61.9553 31.0605H56.8008L32.5336 48.0929Z" fill="#B6BED9"/>
<path d="M41.3003 48.0929H45.4046L69.6719 31.0605H65.9163L41.3003 48.0929Z" fill="#B6BED9"/>
<path d="M56.2065 34.8034H60.4829L62.8359 33.1911L62.3844 32.1599L61.9624 31.0566L56.2065 34.8034Z" fill="#0C2780"/>
<path d="M69.675 31.0723L45.4063 48.0962H93.9453L69.675 31.0723Z" fill="#6E7EB4"/>
<g style="mix-blend-mode:overlay">
<path fill-rule="evenodd" clip-rule="evenodd" d="M45.4028 48.0962L69.6716 31.0723L93.9418 48.0962H45.4028ZM93.9418 48.0971H45.4028V52.0139H93.9418V48.0971ZM99.9459 79.6612H93.9418V74.2856H45.4028V79.6612H40.3516V84.399H99.9459V79.6612Z" fill="url(#paint5_linear_43600_28656)"/>
</g>
<path d="M55.5 48.1806L69.6743 38.3926L83.8503 48.1806H55.5Z" fill="white" fill-opacity="0.8"/>
<path d="M49.4463 23.1205C49.2575 23.1205 49.121 22.9841 49.0896 22.7952C48.7223 19.9933 48.6278 19.9933 45.7211 19.4372C45.5427 19.4057 45.4062 19.2798 45.4062 19.0909C45.4062 18.8915 45.5427 18.7551 45.7211 18.7341C48.6278 18.3248 48.7328 18.2304 49.0896 15.3866C49.121 15.1872 49.2575 15.0508 49.4463 15.0508C49.6457 15.0508 49.7821 15.1872 49.8031 15.3971C50.1494 18.1989 50.3068 18.1884 53.1716 18.7341C53.35 18.7656 53.4864 18.8915 53.4864 19.0909C53.4864 19.2903 53.35 19.4057 53.1296 19.4372C50.2858 19.8989 50.1494 19.9723 49.8031 22.7742C49.7821 22.9841 49.6457 23.1205 49.4463 23.1205Z" fill="#8FBDFC"/>
<path opacity="0.5" d="M20.81 31.2031C18.8818 31.2031 17.2942 29.6155 17.2942 27.6873C17.2942 25.7625 18.8818 24.1715 20.8066 24.1715C22.7348 24.1715 24.3258 25.7625 24.3258 27.6873C24.3258 29.6155 22.7381 31.2031 20.81 31.2031ZM20.81 30.4312C22.3303 30.4312 23.5539 29.2076 23.5539 27.6873C23.5539 26.167 22.3303 24.9434 20.8066 24.9434C19.2864 24.9434 18.0695 26.167 18.0695 27.6873C18.0695 29.2076 19.2897 30.4312 20.81 30.4312Z" fill="#2E86FE"/>
</g>
<defs>
<linearGradient id="paint0_linear_43600_28656" x1="4.46457" y1="52.5838" x2="35.4443" y2="-12.8407" gradientUnits="userSpaceOnUse">
<stop stop-color="#11AFFF"/>
<stop offset="1" stop-color="#63F0EB"/>
</linearGradient>
<radialGradient id="paint1_radial_43600_28656" cx="0" cy="0" r="1" gradientUnits="userSpaceOnUse" gradientTransform="translate(35.497 4.15756) rotate(90) scale(4.15759 37.4022)">
<stop stop-color="#B1B1DD" stop-opacity="0.8"/>
<stop offset="1" stop-color="#B1B1DD" stop-opacity="0"/>
</radialGradient>
<linearGradient id="paint2_linear_43600_28656" x1="84.1197" y1="13.8652" x2="84.1197" y2="37.7915" gradientUnits="userSpaceOnUse">
<stop stop-color="#1C54BB"/>
<stop offset="1" stop-color="#2E86FE"/>
</linearGradient>
<linearGradient id="paint3_linear_43600_28656" x1="74.4248" y1="57.424" x2="74.4248" y2="13.8652" gradientUnits="userSpaceOnUse">
<stop stop-color="#0E2A84"/>
<stop offset="1" stop-color="#2E86FE"/>
</linearGradient>
<linearGradient id="paint4_linear_43600_28656" x1="93.1397" y1="31.8324" x2="78.3147" y2="10.1815" gradientUnits="userSpaceOnUse">
<stop stop-color="#11AFFF"/>
<stop offset="1" stop-color="#63F0EB"/>
</linearGradient>
<linearGradient id="paint5_linear_43600_28656" x1="106.614" y1="31.0723" x2="8.69836" y2="85.6499" gradientUnits="userSpaceOnUse">
<stop stop-color="white"/>
<stop offset="1"/>
</linearGradient>
<clipPath id="clip0_43600_28656">
<rect width="97.0701" height="97.0701" fill="white" transform="translate(16.0625 0.464844)"/>
</clipPath>
</defs>
</svg>
