<svg width="48" height="24" viewBox="0 0 48 24" fill="none" xmlns="http://www.w3.org/2000/svg">
<g clip-path="url(#clip0_48_706)">
<path d="M16.3373 14.6894V8.47476H14.1045V7H20.1719V8.47476H17.939V14.6894H16.3378H16.3373Z" fill="#00CE7C"/>
<path d="M19.9189 14.6894V9.1068H21.3936V9.99138C21.7414 9.24342 22.194 9.1068 22.6789 9.1068H23.2479V10.6027H22.7635C22.0685 10.6027 21.447 11.0029 21.447 12.2247V14.6894H19.9198H19.9189Z" fill="#00CE7C"/>
<path d="M23.9425 12.646V9.1068H25.4697V12.2983C25.4697 12.9515 25.7857 13.4359 26.4389 13.4359C27.0921 13.4359 27.4712 12.9515 27.4712 12.3089V9.1068H28.9984V14.6894H27.5448V13.9837C27.1763 14.5422 26.6284 14.8159 25.9329 14.8159C24.7112 14.8159 23.942 13.9731 23.942 12.646H23.9425Z" fill="#00CE7C"/>
<path d="M29.6516 13.1198L30.9787 12.8144C31.0417 13.2463 31.3894 13.5729 32.0532 13.5729C32.5693 13.5729 32.8536 13.3623 32.8536 13.0991C32.8536 12.8885 32.7377 12.7307 32.211 12.6148L31.3365 12.4252C30.2201 12.1828 29.7459 11.6667 29.7459 10.7292C29.7459 9.79174 30.5357 9.00192 32.021 9.00192C33.6011 9.00192 34.2332 9.94998 34.2962 10.5714L32.9585 10.8663C32.8955 10.5397 32.6531 10.1818 31.9893 10.1818C31.5679 10.1818 31.2519 10.3713 31.2519 10.6455C31.2519 10.8773 31.4097 11.0038 31.6838 11.0669L32.9585 11.3617C33.9277 11.583 34.3804 12.1621 34.3804 12.9837C34.3804 13.8683 33.6747 14.7956 32.0629 14.7956C30.2933 14.7956 29.7141 13.7316 29.6506 13.1208L29.6516 13.1198Z" fill="#00CE7C"/>
<path d="M37.3198 14.6894C36.3298 14.6894 35.6661 14.1415 35.6661 13.0568V10.4445H34.7286V9.1068H35.6661V7.86388L37.1933 7.42136V9.1068H38.3203V10.4445H37.1933V12.7827C37.1933 13.1934 37.4039 13.3517 37.8147 13.3517H38.4044V14.6894H37.3198Z" fill="#00CE7C"/>
<path d="M39.237 14.6894V7H40.7642V14.6894H39.237Z" fill="#00CE7C"/>
<path d="M45.3675 9.1068H47L44.6724 16.6908H43.0399L43.6825 14.6894H42.8398L41.302 9.1068H42.9345L44.0827 13.4253L45.3679 9.1068H45.3675Z" fill="#00CE7C"/>
<path d="M1 10.3667H4.58524V7.50692L7.4446 10.3667L4.58524 13.2261V14.6894H8.0564V10.3667H11.2451V7H1V10.3667Z" fill="#00CE7C"/>
</g>
<defs>
<clipPath id="clip0_48_706">
<rect width="46" height="9.69082" fill="white" transform="translate(1 7)"/>
</clipPath>
</defs>
</svg>
