<svg width="24" height="24" viewBox="0 0 24 24" fill="none" xmlns="http://www.w3.org/2000/svg">
<path d="M18.5152 7.57559C18.7333 6.17469 18.5152 5.22732 17.7719 4.36058C16.9493 3.40314 15.4726 3 13.5697 3H8.06924C7.68272 3 7.35566 3.28219 7.2962 3.67525L5.0068 18.4502C4.95725 18.7424 5.1852 19.0045 5.47261 19.0045H8.8621L8.62425 20.5162C8.5846 20.7682 8.78282 21 9.03059 21H11.8948C12.2318 21 12.5192 20.748 12.5787 20.4054L12.6084 20.2542L13.1436 16.7772L13.1832 16.5857C13.2328 16.243 13.5202 15.991 13.8671 15.991H14.2932C17.0683 15.991 19.2387 14.8421 19.873 11.5364C20.1406 10.1557 20.0019 8.99664 19.2982 8.18029C19.0901 7.93841 18.8225 7.73684 18.5152 7.57559Z" fill="#009ADE"/>
<path d="M18.9172 7.57431C19.1417 6.1738 18.9172 5.2267 18.1518 4.3602C17.3047 3.40302 15.7841 3 13.8246 3H8.16052C7.76251 3 7.42572 3.28212 7.36449 3.67506L5.007 18.4458C4.95598 18.738 5.1907 19 5.48666 19H8.97697L9.85465 13.4987L9.82403 13.67C9.88526 13.2771 10.222 12.995 10.6201 12.995H12.2836C15.5494 12.995 18.1007 11.6851 18.856 7.89673C18.8866 7.78589 18.8968 7.67506 18.9172 7.57431Z" fill="#002169"/>
<path d="M10.7995 7.59446C10.8403 7.36272 10.9933 7.17128 11.1973 7.07053C11.289 7.03023 11.391 7 11.5032 7H15.9394C16.4697 7 16.9592 7.03023 17.4079 7.10076C17.5405 7.12091 17.6629 7.14106 17.7853 7.17128C17.9076 7.20151 18.0198 7.23174 18.1422 7.26196C18.2034 7.28212 18.2544 7.29219 18.3054 7.31234C18.5297 7.38287 18.7337 7.47355 18.9172 7.56423C19.1416 6.16373 18.9172 5.21662 18.1524 4.35013C17.2957 3.40302 15.7762 3 13.8182 3H8.15822C7.76049 3 7.42395 3.28212 7.36277 3.67506L5.007 18.4458C4.95601 18.738 5.19056 19 5.48631 19H8.97407L9.85111 13.4987L10.7995 7.59446Z" fill="#002F87"/>
</svg>
