<svg width="22" height="24" viewBox="0 0 22 24" fill="none" xmlns="http://www.w3.org/2000/svg">
<g clip-path="url(#clip0_7055_309)">
<path d="M7.50677 6.4907C8.40591 6.70351 9.39018 6.8312 10.417 6.8578V3.15485C9.23589 3.3783 8.18246 4.65518 7.50677 6.4907Z" fill="#0C2780"/>
<path d="M14.2104 15.3438C13.274 15.1097 12.2366 14.9713 11.1565 14.9447V19.0946C12.4281 18.8552 13.5454 17.3974 14.2104 15.3438Z" fill="#0C2780"/>
<path d="M14.0667 6.4907C13.3911 4.65518 12.3376 3.3783 11.1565 3.15485V6.8578C12.1833 6.8312 13.1676 6.70351 14.0667 6.4907Z" fill="#0C2780"/>
<path d="M4.95301 5.55433C5.48505 5.84163 6.09157 6.09701 6.76193 6.29918C7.1982 5.07018 7.80471 4.06996 8.51764 3.38364C7.13967 3.78798 5.91599 4.54347 4.94769 5.55433H4.95301Z" fill="#0C2780"/>
<path d="M10.417 7.60265C9.2944 7.57605 8.23566 7.44304 7.26735 7.21426C6.95878 8.27833 6.76724 9.48605 6.73532 10.7576H10.4117V7.60265H10.417Z" fill="#0C2780"/>
<path d="M10.417 11.5025H6.74065C6.76725 12.6091 6.91622 13.6625 7.15563 14.6202C8.15054 14.3755 9.25185 14.2318 10.417 14.2052V11.5025Z" fill="#0C2780"/>
<path d="M6.62891 15.5513C5.89471 15.7854 5.23499 16.0727 4.68167 16.4078C5.68722 17.573 7.02262 18.4455 8.53892 18.8818C7.74087 18.1263 7.07582 16.9718 6.62891 15.5513Z" fill="#0C2780"/>
<path d="M10.417 19.0999V14.95C9.33697 14.9766 8.2995 15.115 7.36312 15.3491C8.02816 17.408 9.14543 18.8605 10.417 19.0999Z" fill="#0C2780"/>
<path d="M14.3062 7.21426C13.3379 7.44304 12.2791 7.57605 11.1565 7.60265V10.7576H14.8329C14.801 9.48605 14.6094 8.27833 14.3008 7.21426H14.3062Z" fill="#0C2780"/>
<path d="M16.8919 16.4078C16.3332 16.0727 15.6788 15.7854 14.9446 15.5513C14.4977 16.9718 13.8327 18.1263 13.0346 18.8818C14.5509 18.4402 15.8863 17.5677 16.8919 16.4078Z" fill="#0C2780"/>
<path d="M14.8382 11.5025H11.1618V14.2052C12.327 14.2318 13.4283 14.3755 14.4232 14.6202C14.6626 13.6679 14.8116 12.6091 14.8382 11.5025Z" fill="#0C2780"/>
<path d="M15.0404 7.02275C15.3596 8.14002 15.5511 9.40627 15.5777 10.763H18.8497C18.7699 9.0232 18.1421 7.4271 17.1313 6.1449C16.5247 6.49072 15.8225 6.78866 15.0404 7.02275Z" fill="#0C2780"/>
<path d="M15.5777 11.5025C15.5511 12.6889 15.4022 13.8062 15.1468 14.8171C15.9874 15.0778 16.7322 15.4076 17.3654 15.8013C18.2379 14.5777 18.7753 13.0986 18.8497 11.4972H15.5777V11.5025Z" fill="#0C2780"/>
<path d="M6.42142 14.817C6.17137 13.8062 6.01708 12.6889 5.99048 11.5025H2.71847C2.79295 13.1039 3.33031 14.5776 4.20284 15.8066C4.83596 15.4129 5.58081 15.0831 6.42142 14.8224V14.817Z" fill="#0C2780"/>
<path d="M13.0506 3.38364C13.7688 4.06996 14.37 5.07018 14.8063 6.29918C15.4766 6.09701 16.0832 5.84695 16.6152 5.55433C15.6469 4.54347 14.4232 3.78798 13.0452 3.38364H13.0506Z" fill="#0C2780"/>
<path d="M5.99579 10.7576C6.02772 9.40096 6.21393 8.13471 6.53315 7.01744C5.75106 6.78335 5.04877 6.48541 4.44225 6.13959C3.43139 7.42179 2.80359 9.01789 2.72379 10.7576H5.99579Z" fill="#0C2780"/>
<path d="M1 11.1247C1 5.71928 5.38396 1.34064 10.7894 1.34064" stroke="#0C2780" stroke-width="1.5961" stroke-miterlimit="10"/>
<path d="M20.5735 11.1248C20.5735 16.5302 16.1896 20.9142 10.7841 20.9142" stroke="#0C2780" stroke-width="1.5961" stroke-miterlimit="10"/>
<path d="M13.3485 1.36193L10.7362 -0.149048V2.86758L13.3485 1.36193Z" fill="#0C2780"/>
<path d="M8.23034 20.8609L10.8426 22.3719V19.3553L8.23034 20.8609Z" fill="#0C2780"/>
</g>
<defs>
<clipPath id="clip0_7055_309">
<rect width="21.79" height="23.181" fill="white"/>
</clipPath>
</defs>
</svg>
