<svg width="230" height="58" viewBox="0 0 230 58" fill="none" xmlns="http://www.w3.org/2000/svg">
<rect x="109.641" y="10.5234" width="118.49" height="77.156" rx="11.6615" fill="url(#paint0_radial_56371_118201)"/>
<rect x="109.641" y="10.5234" width="118.49" height="77.156" rx="11.6615" fill="url(#paint1_radial_56371_118201)"/>
<path d="M119.559 29.5915C119.559 27.4893 121.263 25.7852 123.365 25.7852H213.446C215.548 25.7852 217.252 27.4893 217.252 29.5915V37.052H119.559V29.5915Z" fill="#0C2780"/>
<rect x="119.559" y="39.0586" width="97.6935" height="11.2669" fill="#E9F2FE"/>
<rect opacity="0.3" width="120.636" height="105.561" transform="matrix(-1 0 0 1 196.613 17.4062)" fill="url(#paint2_radial_56371_118201)"/>
<rect x="2.85938" y="0.742188" width="132.816" height="81.4851" rx="11.7891" fill="#698EC0"/>
<path d="M4.52344 12.5313C4.52344 6.02034 9.80159 0.742188 16.3125 0.742188H125.55C132.061 0.742188 137.34 6.02034 137.34 12.5313V70.4382C137.34 76.9491 132.061 82.2273 125.55 82.2273H16.3125C9.80159 82.2273 4.52344 76.9491 4.52344 70.4382V12.5313Z" fill="#ECF6FF"/>
<path d="M4.52344 12.5313C4.52344 6.02034 9.80159 0.742188 16.3125 0.742188H125.55C132.061 0.742188 137.34 6.02034 137.34 12.5313V70.4382C137.34 76.9491 132.061 82.2273 125.55 82.2273H16.3125C9.80159 82.2273 4.52344 76.9491 4.52344 70.4382V12.5313Z" fill="url(#paint3_linear_56371_118201)" fill-opacity="0.2"/>
<path d="M4.52344 12.5313C4.52344 6.02034 9.80159 0.742188 16.3125 0.742188H125.55C132.061 0.742188 137.34 6.02034 137.34 12.5313V70.4382C137.34 76.9491 132.061 82.2273 125.55 82.2273H16.3125C9.80159 82.2273 4.52344 76.9491 4.52344 70.4382V12.5313Z" fill="url(#paint4_radial_56371_118201)" fill-opacity="0.6"/>
<path d="M4.52344 12.5313C4.52344 6.02034 9.80159 0.742188 16.3125 0.742188H125.55C132.061 0.742188 137.34 6.02034 137.34 12.5313V70.4382C137.34 76.9491 132.061 82.2273 125.55 82.2273H16.3125C9.80159 82.2273 4.52344 76.9491 4.52344 70.4382V12.5313Z" fill="#3290F0" fill-opacity="0.1"/>
<path d="M4.52344 12.5313C4.52344 6.02034 9.80159 0.742188 16.3125 0.742188H125.55C132.061 0.742188 137.34 6.02034 137.34 12.5313V70.4382C137.34 76.9491 132.061 82.2273 125.55 82.2273H16.3125C9.80159 82.2273 4.52344 76.9491 4.52344 70.4382V12.5313Z" fill="url(#paint5_linear_56371_118201)" fill-opacity="0.7"/>
<path opacity="0.4" d="M30.8604 82.4633L37.5166 82.5625C39.1475 82.5869 40.7329 82.0246 41.9842 80.9782L90.2048 40.6511L114.807 63.9352C117.42 66.4085 121.507 66.4203 124.135 63.9621L137.339 51.6088C137.339 38.076 137.339 3.9375 137.339 3.9375L99.0698 40.1654C96.4547 42.641 92.3637 42.6511 89.7365 40.1883L69.5166 21.2342C67.0233 18.897 63.1833 18.7712 60.5424 20.9403L4.55416 66.9254C2.48004 68.629 1.57683 71.4102 2.67205 73.8606C4.3575 77.6316 7.4447 82.5822 11.9674 82.3263C19.229 81.9154 30.8604 82.4633 30.8604 82.4633Z" fill="url(#paint6_radial_56371_118201)"/>
<rect x="17.4492" y="29.4375" width="22.7149" height="16.3061" rx="5.16059" fill="#E5F2FF"/>
<mask id="mask0_56371_118201" style="mask-type:alpha" maskUnits="userSpaceOnUse" x="17" y="29" width="24" height="17">
<rect x="17.4492" y="29.4375" width="22.7149" height="16.3061" rx="5.16059" fill="#C4C4C4"/>
</mask>
<g mask="url(#mask0_56371_118201)">
<rect x="25.6685" y="27.0279" width="6.28149" height="20.6212" stroke="#AAC7EF" stroke-width="1.29015"/>
<mask id="path-11-inside-1_56371_118201" fill="white">
<path d="M41.7871 31.9883C45.3713 31.9884 48.2764 34.7265 48.2764 38.1035C48.2761 41.4803 45.3711 44.2176 41.7871 44.2178C39.3836 44.2178 37.2867 42.9857 36.165 41.1562H21.4473C20.3256 42.9855 18.2295 44.2177 15.8262 44.2178C12.242 44.2178 9.3362 41.4804 9.33594 38.1035C9.33594 34.7264 12.2419 31.9883 15.8262 31.9883C18.2258 31.9884 20.3194 33.2165 21.4424 35.041H36.1699C37.2929 33.2163 39.3873 31.9883 41.7871 31.9883Z"/>
</mask>
<path d="M41.7871 31.9883L41.7872 30.6981H41.7871V31.9883ZM48.2764 38.1035L49.5665 38.1036V38.1035H48.2764ZM41.7871 44.2178L41.7871 45.5079L41.7872 45.5079L41.7871 44.2178ZM36.165 41.1562L37.2649 40.4819L36.8873 39.8661H36.165V41.1562ZM21.4473 41.1562V39.8661H20.725L20.3474 40.4818L21.4473 41.1562ZM15.8262 44.2178L15.8262 45.5079L15.8262 45.5079L15.8262 44.2178ZM9.33594 38.1035L8.04579 38.1035L8.04579 38.1036L9.33594 38.1035ZM15.8262 31.9883L15.8262 30.6981H15.8262V31.9883ZM21.4424 35.041L20.3437 35.7173L20.7215 36.3312H21.4424V35.041ZM36.1699 35.041V36.3312H36.8908L37.2687 35.7172L36.1699 35.041ZM41.7871 31.9883L41.7871 33.2784C44.732 33.2785 46.9862 35.5101 46.9862 38.1035H48.2764H49.5665C49.5665 33.9429 46.0107 30.6983 41.7872 30.6981L41.7871 31.9883ZM48.2764 38.1035L46.9862 38.1034C46.986 40.6966 44.732 42.9275 41.7871 42.9276L41.7871 44.2178L41.7872 45.5079C46.0103 45.5078 49.5662 42.2641 49.5665 38.1036L48.2764 38.1035ZM41.7871 44.2178V42.9276C39.8269 42.9276 38.1492 41.9241 37.2649 40.4819L36.165 41.1562L35.0652 41.8306C36.4243 44.0472 38.9402 45.5079 41.7871 45.5079V44.2178ZM36.165 41.1562V39.8661H21.4473V41.1562V42.4464H36.165V41.1562ZM21.4473 41.1562L20.3474 40.4818C19.4631 41.9241 17.786 42.9276 15.8261 42.9276L15.8262 44.2178L15.8262 45.5079C18.6731 45.5078 21.1881 44.0469 22.5471 41.8307L21.4473 41.1562ZM15.8262 44.2178V42.9276C12.881 42.9276 10.6263 40.6964 10.6261 38.1034L9.33594 38.1035L8.04579 38.1036C8.04611 42.2644 11.6031 45.5079 15.8262 45.5079V44.2178ZM9.33594 38.1035H10.6261C10.6261 35.5102 12.881 33.2784 15.8262 33.2784V31.9883V30.6981C11.6027 30.6981 8.04579 33.9426 8.04579 38.1035H9.33594ZM15.8262 31.9883L15.8261 33.2784C17.7831 33.2785 19.4583 34.2788 20.3437 35.7173L21.4424 35.041L22.5411 34.3648C21.1805 32.1543 18.6685 30.6982 15.8262 30.6981L15.8262 31.9883ZM21.4424 35.041V36.3312H36.1699V35.041V33.7509H21.4424V35.041ZM36.1699 35.041L37.2687 35.7172C38.154 34.2788 39.8298 33.2784 41.7871 33.2784V31.9883V30.6981C38.9448 30.6981 36.4319 32.1539 35.0712 34.3648L36.1699 35.041Z" fill="#AAC7EF" mask="url(#path-11-inside-1_56371_118201)"/>
</g>
<rect x="22.9654" y="33.6529" width="11.6898" height="7.88203" fill="#E5F2FF" stroke="#AAC7EF" stroke-width="1.29015"/>
<rect x="111.777" y="10.5234" width="15.0067" height="5.65565" rx="2.82782" fill="#0C2780"/>
<path d="M117.669 32.1422C118.987 33.4421 119.646 35.0094 119.646 36.844C119.646 38.6786 118.987 40.2354 117.669 41.5143L116.276 40.1934C116.665 39.816 116.999 39.2971 117.28 38.6367C117.561 37.9762 117.701 37.3734 117.701 36.8283C117.701 36.2831 117.561 35.6803 117.28 35.0199C116.999 34.3594 116.665 33.8405 116.276 33.4631L117.669 32.1422ZM114.882 34.8155C115.466 35.3816 115.757 36.0525 115.757 36.8283C115.757 37.604 115.466 38.275 114.882 38.8411L112.809 36.8283L114.882 34.8155ZM120.423 29.4375C122.519 31.4922 123.566 33.9611 123.566 36.844C123.566 39.7269 122.519 42.1853 120.423 44.2191L119.03 42.8667C120.737 41.1894 121.59 39.1766 121.59 36.8283C121.59 34.48 120.737 32.4672 119.03 30.7899L120.423 29.4375Z" fill="#AAC7EF"/>
<defs>
<radialGradient id="paint0_radial_56371_118201" cx="0" cy="0" r="1" gradientUnits="userSpaceOnUse" gradientTransform="translate(168.885 49.1015) rotate(-146.089) scale(135.323 135.586)">
<stop stop-color="#DAEAFF"/>
<stop offset="1" stop-color="#B1CCF0"/>
</radialGradient>
<radialGradient id="paint1_radial_56371_118201" cx="0" cy="0" r="1" gradientUnits="userSpaceOnUse" gradientTransform="translate(115.787 120.734) rotate(-80.6901) scale(120.708 136.77)">
<stop stop-color="#99AAD3"/>
<stop offset="1" stop-color="#DAEAFF"/>
</radialGradient>
<radialGradient id="paint2_radial_56371_118201" cx="0" cy="0" r="1" gradientUnits="userSpaceOnUse" gradientTransform="translate(60.3178 52.7803) rotate(90) scale(52.7806 63.5552)">
<stop stop-color="#0C2780"/>
<stop offset="1" stop-color="#0C2780" stop-opacity="0"/>
</radialGradient>
<linearGradient id="paint3_linear_56371_118201" x1="-173.805" y1="8.25976" x2="-58.1066" y2="273.054" gradientUnits="userSpaceOnUse">
<stop stop-color="#2E86FE" stop-opacity="0"/>
<stop offset="0.520833" stop-color="#2E86FE"/>
<stop offset="0.739583" stop-color="#2E86FE" stop-opacity="0"/>
</linearGradient>
<radialGradient id="paint4_radial_56371_118201" cx="0" cy="0" r="1" gradientUnits="userSpaceOnUse" gradientTransform="translate(70.7644 131.147) rotate(-109.396) scale(106.269 123.297)">
<stop stop-color="#0C2780"/>
<stop offset="1" stop-color="#0C2780" stop-opacity="0"/>
</radialGradient>
<linearGradient id="paint5_linear_56371_118201" x1="143.767" y1="0.742182" x2="48.8715" y2="90.9342" gradientUnits="userSpaceOnUse">
<stop stop-color="white" stop-opacity="0"/>
<stop offset="0.209295" stop-color="white"/>
<stop offset="0.645833" stop-color="white" stop-opacity="0"/>
</linearGradient>
<radialGradient id="paint6_radial_56371_118201" cx="0" cy="0" r="1" gradientUnits="userSpaceOnUse" gradientTransform="translate(71.5313 60.0721) rotate(133.098) scale(103.31 187.771)">
<stop stop-color="white"/>
<stop offset="1" stop-color="white" stop-opacity="0"/>
</radialGradient>
</defs>
</svg>
