<svg width="46" height="24" viewBox="0 0 46 24" fill="none" xmlns="http://www.w3.org/2000/svg">
<path d="M32.5638 1.891C33.9649 1.88931 35.3518 2.1606 36.6408 2.6885C39.1628 3.72097 41.1711 5.6527 42.2445 8.0785C42.7917 9.31891 43.0737 10.6526 43.0737 12C43.0737 13.3474 42.7917 14.6811 42.2445 15.9215C41.1711 18.3473 39.1628 20.279 36.6408 21.3115C35.3518 21.8394 33.9649 22.1107 32.5638 22.109H12.4362C11.0351 22.1107 9.64825 21.8394 8.35918 21.3115C5.83719 20.279 3.82886 18.3473 2.75545 15.9215C2.2083 14.6811 1.92633 13.3474 1.92633 12C1.92633 10.6526 2.2083 9.31891 2.75545 8.0785C3.82886 5.6527 5.83719 3.72097 8.35918 2.6885C9.64825 2.1606 11.0351 1.88931 12.4362 1.891H32.5638ZM32.5638 1H12.4362C6.14628 1 1 5.95 1 12C1 18.05 6.14628 23 12.4362 23H32.5638C38.8537 23 44 18.05 44 12C44 5.95 38.8537 1 32.5638 1Z" fill="#3C4043"/>
<g clip-path="url(#clip0_4149_954)">
<path d="M21.5352 12.3499V15.5931H20.4706V7.58431H23.2929C24.0082 7.58431 24.6182 7.81482 25.1172 8.27584C25.6274 8.73685 25.8824 9.29972 25.8824 9.96443C25.8895 10.2843 25.8247 10.6019 25.6926 10.8952C25.5605 11.1886 25.3642 11.4508 25.1172 11.6638C24.6237 12.1194 24.0138 12.3446 23.2929 12.3446H21.5352V12.3499ZM21.5352 8.57067V11.3636H23.3151C23.5107 11.3686 23.7052 11.3345 23.8864 11.2634C24.0677 11.1924 24.2319 11.086 24.3687 10.9508C24.5049 10.8238 24.613 10.6713 24.6864 10.5027C24.7598 10.3341 24.7969 10.1527 24.7956 9.96979C24.7963 9.78851 24.7588 9.60899 24.6854 9.44217C24.612 9.27536 24.5043 9.12474 24.3687 8.99952C24.0914 8.71541 23.7421 8.57603 23.3151 8.57603H21.5352V8.57067Z" fill="#3C4043"/>
<path d="M28.666 9.93227C29.4534 9.93227 30.0744 10.136 30.5291 10.5434C30.9838 10.9508 31.2111 11.5083 31.2111 12.2159V15.5931H30.1964V14.8319H30.152C29.714 15.4591 29.1262 15.77 28.3943 15.77C27.7677 15.77 27.2465 15.5931 26.8251 15.2339C26.6232 15.0701 26.4616 14.8648 26.3523 14.6329C26.2429 14.4011 26.1885 14.1486 26.193 13.8938C26.193 13.3255 26.4148 12.8753 26.8583 12.5429C27.3019 12.2052 27.8952 12.039 28.6327 12.039C29.2648 12.039 29.7861 12.1516 30.1908 12.3767V12.1408C30.1908 11.7817 30.0467 11.4815 29.7528 11.2295C29.4706 10.9827 29.102 10.8486 28.7214 10.8543C28.1281 10.8543 27.6568 11.0955 27.313 11.5833L26.3759 11.0151C26.8916 10.2914 27.655 9.93048 28.666 9.93227ZM27.2908 13.9099C27.2896 14.0409 27.3213 14.1704 27.3831 14.2871C27.4449 14.4038 27.535 14.5043 27.6457 14.5799C27.8811 14.7583 28.1729 14.8529 28.4719 14.848C28.9211 14.848 29.3203 14.6871 29.6696 14.3655C30.0189 14.0439 30.1964 13.6686 30.1964 13.2344C29.8637 12.9825 29.4035 12.8538 28.8102 12.8538C28.3777 12.8538 28.0172 12.9557 27.7289 13.154C27.435 13.3631 27.2908 13.615 27.2908 13.9099Z" fill="#3C4043"/>
<path d="M37 10.1092L33.4513 18H32.3534L33.673 15.2393L31.3331 10.1092H32.492L34.1776 14.0439H34.1998L35.8411 10.1092H37Z" fill="#3C4043"/>
<path d="M17.3005 11.6959C17.3008 11.3724 17.2711 11.0494 17.2118 10.731H12.7492V12.5H15.3193C15.2699 12.7881 15.1598 13.0632 14.9957 13.3083C14.8316 13.5534 14.6172 13.7633 14.3656 13.9249V15.0731H15.8954C16.7887 14.2733 17.3005 13.0897 17.3005 11.6959Z" fill="#4285F4"/>
<path d="M14.3656 13.9249C13.9397 14.2025 13.3914 14.365 12.7498 14.365C11.5105 14.365 10.4592 13.5577 10.0827 12.4694H8.50516V13.6531C8.90077 14.4136 9.50725 15.0529 10.2569 15.4995C11.0065 15.9461 11.8698 16.1825 12.7504 16.1822C14.0335 16.1822 15.1114 15.7743 15.896 15.072L14.3656 13.9249Z" fill="#34A853"/>
<path d="M9.93463 11.5914C9.93483 11.2927 9.98501 10.996 10.0832 10.7128V9.52914H8.50515C8.17298 10.1692 8 10.8753 8 11.5914C8 12.3074 8.17298 13.0136 8.50515 13.6536L10.0832 12.47C9.98501 12.1868 9.93483 11.8901 9.93463 11.5914Z" fill="#FABB05"/>
<path d="M12.7504 8.81725C13.4279 8.80668 14.0825 9.0541 14.573 9.50609L15.9287 8.19649C15.1053 7.45512 14.0329 7 12.7504 7C11.8698 6.99989 11.0066 7.23633 10.257 7.68292C9.50738 8.12951 8.90087 8.7687 8.50516 9.52914L10.0832 10.7128C10.4597 9.62456 11.5111 8.81725 12.7504 8.81725Z" fill="#E94235"/>
</g>
<defs>
<clipPath id="clip0_4149_954">
<rect width="29" height="11" fill="white" transform="translate(8 7)"/>
</clipPath>
</defs>
</svg>
