<svg xmlns="http://www.w3.org/2000/svg" xmlns:xlink="http://www.w3.org/1999/xlink" viewBox="0 0 900 450" fill="none">
	<use xlink:href="#bg" href="#bg" />
	<g id="icons-group">
		<use id="open-positions" xlink:href="#open-positions-comp" href="#open-positions-comp" class="icon-section" />
		<use id="open-positions-dm" xlink:href="#open-positions-comp" href="#open-positions-comp" class="icon-section" />
		<symbol id="open-positions-comp">
			<path class="icon" filter="url(#shadow)" d="M440.562 173.351c-1.992 3.101-4.946 4.944-8.862 5.529-3.917.585-7.528-.101-10.834-2.056l-29.378-20.84 31.419 178.188c.724 4.104-.013 7.724-2.21 10.862-2.197 3.137-5.347 5.068-9.45 5.791-4.103.724-7.673-.022-10.707-2.237-3.035-2.215-4.915-5.374-5.638-9.478l-31.42-178.188-21.6 30.463c-2.197 3.138-5.202 4.99-9.016 5.557-3.814.566-7.392-.231-10.735-2.391-2.968-2.439-4.736-5.565-5.302-9.378-.567-3.814.212-7.495 2.336-11.042l40.558-57.923c1.05-1.243 2.375-2.429 3.974-3.557 1.6-1.128 3.322-1.855 5.169-2.181 2.052-.361 4.022-.286 5.91.228 1.889.513 3.437 1.192 4.643 2.037l58.032 41.173c3.306 1.956 5.294 4.831 5.963 8.627.67 3.796-.281 7.401-2.852 10.816Zm139.865 100.362-40.25 57.869c-1.014 1.448-2.33 2.685-3.947 3.71-1.618 1.026-3.452 1.72-5.504 2.081a14.235 14.235 0 0 1-5.575-.127c-1.871-.411-3.428-1.141-4.671-2.191l-58.592-40.757c-3.174-2.402-5.044-5.51-5.611-9.324-.566-3.814.231-7.392 2.391-10.735 2.234-2.932 5.299-4.742 9.197-5.429 3.899-.687 7.434.17 10.608 2.572l29.993 20.732-31.473-178.497c-.688-3.898.067-7.416 2.264-10.553 2.197-3.138 5.244-5.05 9.142-5.737 4.309-.76 7.981-.033 11.016 2.182s4.896 5.272 5.583 9.17l31.474 178.497 20.985-30.356c2.571-3.415 5.679-5.285 9.324-5.61 3.644-.326 7.156.695 10.535 3.061 3.306 1.955 5.261 4.942 5.864 8.961.603 4.019-.315 7.513-2.753 10.481Z"/>
		</symbol>
		<use id="watchlists" xlink:href="#watchlists-comp" href="#watchlists-comp" class="icon-section" />
		<use id="watchlists-dm" xlink:href="#watchlists-comp" href="#watchlists-comp" class="icon-section" />
		<symbol id="watchlists-comp">
			<path class="icon" filter="url(#shadow)" d="m419.145 311.037 39.903-34.643 49.707 19.16-21.21-48.301 33.369-41.107-52.462 4.808-28.723-44.12-11.647 50.921-50.942 13.425 45.361 26.907-3.356 52.95Zm45.655-2.021-51.671 45.285c-2.752 2.39-5.531 3.726-8.337 4.009-2.806.283-5.398-.318-7.775-1.802-2.51-1.038-4.435-2.656-5.774-4.853-1.339-2.196-2.111-5.075-2.316-8.635l4.083-68.626-59.372-36.178c-2.341-1.279-4.208-3.171-5.602-5.676-1.394-2.504-1.933-5.265-1.619-8.282.35-2.812 1.398-5.271 3.142-7.376 1.744-2.106 4.342-3.569 7.794-4.389l66.982-17.84 14.781-67.34c.761-2.884 2.236-5.313 4.427-7.285 2.191-1.973 4.62-3.195 7.287-3.665 2.667-.47 5.367-.153 8.101.951 2.733 1.105 4.95 2.882 6.652 5.333l37.229 58.168 69.044-6.145c3.319-.373 6.158.131 8.517 1.513 2.359 1.382 4.184 3.334 5.475 5.857 1.327 2.728 1.765 5.506 1.312 8.336-.453 2.83-1.561 5.247-3.323 7.25l-43.418 54.302 27.308 63.091c1.026 3.416 1.285 6.385.777 8.907-.507 2.522-1.762 4.7-3.766 6.535-1.726 2.208-3.956 3.659-6.689 4.352-2.734.694-5.7.371-8.898-.969L464.8 309.016Z"/>
		</symbol>
		<use id="bonus" xlink:href="#bonus-comp" href="#bonus-comp" class="icon-section" />
		<use id="bonus-dm" xlink:href="#bonus-comp" href="#bonus-comp" class="icon-section" />
		<symbol id="bonus-comp">
			<path class="icon" filter="url(#shadow)" d="m359.28 304.457 4.721 26.775 203.117-35.815-4.721-26.775-203.117 35.815Zm9.659 54.78c-7.796 1.375-14.901-.228-21.315-4.809-6.414-4.581-10.29-10.667-11.628-18.258L310.98 194.296c-1.411-8.001.122-15.2 4.601-21.596 4.478-6.395 10.615-10.281 18.412-11.655l30.159-5.318c-1.146-1.702-2.364-3.814-3.655-6.337-1.291-2.522-2.172-5.117-2.642-7.784-1.809-10.259.337-19.681 6.439-28.267 6.102-8.585 14.179-13.765 24.233-15.537 6.565-1.158 12.856-.575 18.871 1.75 6.016 2.323 11.1 5.658 15.25 10.003l8.924 9.216 4.925-11.658c2.379-5.708 6.006-10.631 10.882-14.77 4.876-4.139 10.289-6.733 16.239-7.782 10.464-1.845 19.979.232 28.547 6.231 8.568 6 13.774 14.231 15.619 24.695.362 2.051.504 4.353.425 6.906-.079 2.552-.499 5.271-1.259 8.155l30.159-5.318c8.002-1.411 15.2.123 21.596 4.601 6.396 4.478 10.299 10.718 11.71 18.72l25.016 141.874c1.339 7.591-.222 14.635-4.682 21.134-4.461 6.498-10.691 10.452-18.693 11.863l-203.117 35.815Zm-16.605-94.172 203.117-35.815-13.349-75.707-68.321 12.047 25.72 25.293c1.629 2.04 2.389 4.55 2.28 7.531-.109 2.981-.924 5.557-2.445 7.729-2.137 2.281-4.719 3.53-7.749 3.747-3.029.216-5.581-.762-7.657-2.934l-45.232-45.969-27.089 58.721c-1.654 2.619-3.923 4.447-6.808 5.484-2.884 1.038-5.328.675-7.331-1.087-2.957-1.171-4.833-3.114-5.629-5.83-.796-2.715-.609-5.551.562-8.508l15.519-32.564-68.937 12.155 13.349 75.707Zm45.888-114.076c4.309-.76 7.842-2.917 10.6-6.471 2.758-3.553 3.721-7.69 2.889-12.409-.759-4.308-3.07-7.814-6.932-10.518-3.861-2.704-7.946-3.676-12.255-2.916-4.308.759-7.805 3.121-10.491 7.085s-3.667 7.998-2.943 12.102c.832 4.718 3.151 8.276 6.959 10.672 3.807 2.396 7.865 3.214 12.173 2.455Zm74.784-13.187c4.719-.832 8.355-3.007 10.908-6.524 2.553-3.518 3.413-7.636 2.581-12.355-.76-4.308-2.968-7.833-6.624-10.573-3.656-2.74-7.844-3.694-12.563-2.862-4.513.796-8.011 3.158-10.491 7.086-2.481 3.928-3.359 7.944-2.636 12.047.832 4.719 3.049 8.294 6.651 10.727 3.602 2.432 7.66 3.25 12.174 2.454Z"/>
		</symbol>
		<use id="alerts" xlink:href="#alerts-comp" href="#alerts-comp" class="icon-section" />
		<use id="alerts-dm" xlink:href="#alerts-comp" href="#alerts-comp" class="icon-section" />
		<symbol id="alerts-comp">
			<path class="icon" filter="url(#shadow)" d="M336.917 220.82c-3.898.687-7.202-.052-9.911-2.219-2.709-2.167-4.009-4.74-3.9-7.721-.988-14 .152-27.634 3.418-40.903 3.266-13.268 8.871-25.574 16.814-36.918 1.786-3.065 4.493-4.811 8.119-5.239 3.627-.428 7.027.559 10.201 2.961 2.449 1.895 3.894 4.39 4.334 7.486.44 3.096-.251 6.073-2.074 8.933-6.047 8.894-10.36 18.328-12.938 28.302-2.578 9.974-3.494 20.078-2.747 30.313.277 3.97-.821 7.337-3.296 10.1-2.474 2.764-5.148 4.399-8.02 4.905Zm218.196-38.474c-3.282.579-6.405-.034-9.367-1.839-2.963-1.804-4.993-4.619-6.091-8.445a105.85 105.85 0 0 0-12.948-27.545c-5.629-8.527-12.721-16.056-21.277-22.586-2.691-2.064-4.35-4.575-4.977-7.532-.627-2.957-.029-5.865 1.793-8.725 1.956-3.306 4.729-5.276 8.319-5.91 3.591-.632 6.75.186 9.477 2.455 10.969 8.22 20.188 17.912 27.656 29.077 7.469 11.164 13.134 23.493 16.994 36.986 1.122 2.764.678 5.645-1.332 8.644-2.01 2.998-4.759 4.805-8.247 5.42ZM369.522 333.749c-4.308.76-8.04-.01-11.196-2.31-3.156-2.299-5.077-5.398-5.764-9.296-.76-4.309-.032-7.981 2.183-11.015 2.215-3.035 5.476-4.933 9.785-5.692l14.156-2.497-15.302-86.786c-3.256-18.465-.744-36.308 7.538-53.528 8.281-17.221 21.256-29.716 38.926-37.485l-1.303-7.386c-1.085-6.155.123-11.604 3.623-16.347 3.501-4.742 8.328-7.656 14.483-8.741 5.95-1.05 11.432.047 16.446 3.288 5.014 3.24 8.064 7.939 9.149 14.094l1.303 7.386c19.43 1.016 36.083 8.181 49.96 21.495 13.877 13.313 22.461 29.305 25.753 47.975l15.303 86.787 13.849-2.442c3.898-.688 7.458.007 10.68 2.083 3.222 2.076 5.195 5.166 5.918 9.269.76 4.309-.01 8.041-2.309 11.196-2.3 3.156-5.399 5.078-9.297 5.765l-193.884 34.187Zm103.454 19.837c-7.181 1.266-13.951-.238-20.311-4.511-6.359-4.273-10.19-10.102-11.492-17.488l53.856-9.497c1.339 7.591-.207 14.422-4.637 20.492-4.43 6.069-10.235 9.737-17.416 11.004Zm-66.284-55.585 109.56-19.318-15.303-86.786c-2.713-15.388-10.336-27.424-22.868-36.109-12.531-8.685-26.389-11.689-41.571-9.012-15.388 2.713-27.433 10.285-36.136 22.714-8.703 12.429-11.698 26.338-8.985 41.725l15.303 86.786Z"/>
		</symbol>
		<use id="error" xlink:href="#error-comp" href="#error-comp" class="icon-section" />
		<use id="error-dm" xlink:href="#error-comp" href="#error-comp" class="icon-section" />
		<symbol id="error-comp">
			<path class="icon" filter="url(#shadow)" d="M354.023 357.425c-5.334.941-9.863-.747-13.585-5.062-3.723-4.315-4.564-9.085-2.524-14.31l80.497-220.135c2.041-5.225 5.728-8.308 11.062-9.249 5.335-.941 9.854.695 13.558 4.908l150.933 179.327c3.705 4.213 4.546 8.983 2.524 14.311-2.023 5.328-5.598 8.444-10.727 9.348l-231.738 40.862ZM446.441 197.7c-2.462.434-4.42 1.626-5.875 3.575-1.454 1.948-1.964 4.154-1.53 6.616l8.628 48.933c.434 2.462 1.728 4.402 3.882 5.82 2.154 1.418 4.359 1.929 6.616 1.531 2.462-.434 4.36-1.668 5.694-3.702 1.334-2.033 1.784-4.281 1.35-6.743l-8.628-48.932c-.435-2.462-1.617-4.369-3.548-5.721-1.93-1.352-4.127-1.811-6.589-1.377Zm17.419 98.789c2.873-.507 5.06-1.897 6.563-4.172 1.503-2.275 2.019-4.746 1.549-7.413-.471-2.667-1.852-4.803-4.145-6.409-2.293-1.605-4.773-2.173-7.44-1.702-2.667.47-4.855 1.86-6.563 4.171-1.708 2.311-2.326 4.8-1.856 7.467.506 2.873 1.948 5.051 4.325 6.536 2.378 1.485 4.9 1.992 7.567 1.522Zm-95.767 32.752 194.499-34.295-126.933-151.193-67.566 185.488Z"/>
		</symbol>
		<use id="notifications" xlink:href="#notifications-comp" href="#notifications-comp" class="icon-section" />
		<use id="notifications-dm" xlink:href="#notifications-comp" href="#notifications-comp" class="icon-section" />
		<symbol id="notifications-comp">
			<path class="icon" filter="url(#shadow)" d="m382.793 319.033-20.025 28.6c-4.056 5.792-9.08 7.894-15.071 6.306-5.992-1.587-9.549-5.562-10.67-11.922l-34.676-196.654c-1.338-7.591.265-14.696 4.81-21.315 4.544-6.619 10.612-10.597 18.203-11.936l132.334-23.334c-1.014 5.045-1.516 9.999-1.505 14.862a55.532 55.532 0 0 0 1.881 14.265l-127.717 22.52 27.187 154.184 203.116-35.815-17.799-100.942a47.504 47.504 0 0 0 14.511-8.588 52.119 52.119 0 0 0 10.872-13.023l20.729 117.561c1.339 7.591-.324 14.654-4.99 21.188-4.665 6.535-10.793 10.471-18.385 11.81l-182.805 32.233Zm83.989-72.561c2.667-.471 4.719-1.732 6.155-3.783 1.436-2.052 1.92-4.411 1.449-7.078-.47-2.667-1.731-4.719-3.782-6.155-2.052-1.437-4.411-1.92-7.078-1.45l-76.631 13.512c-2.667.471-4.719 1.732-6.155 3.783s-1.92 4.411-1.449 7.078c.47 2.667 1.731 4.719 3.782 6.155 2.052 1.437 4.411 1.92 7.078 1.449l76.631-13.511Zm44.394-48.763c2.667-.47 4.719-1.731 6.156-3.782 1.436-2.052 1.919-4.411 1.449-7.078-.398-2.257-1.641-4.206-3.729-5.848-2.087-1.642-4.465-2.227-7.132-1.757l-128.025 22.574c-2.667.471-4.701 1.834-6.101 4.091-1.4 2.256-1.883 4.616-1.449 7.078.434 2.462 1.677 4.411 3.728 5.847 2.052 1.437 4.411 1.92 7.078 1.449l128.025-22.574Zm-38.515-52.865-99.712 17.582c-2.667.47-4.71 1.782-6.128 3.936-1.418 2.154-1.892 4.565-1.422 7.232.434 2.462 1.677 4.411 3.728 5.848 2.052 1.436 4.411 1.919 7.078 1.449l117.254-20.675.108.616a57.604 57.604 0 0 1-11.494-6.7 49.3 49.3 0 0 1-9.412-9.288Zm50.96-6.13c-10.053 1.773-19.08-.232-27.081-6.013-8-5.782-12.887-13.7-14.66-23.753-1.7-9.643.22-18.55 5.761-26.719 5.54-8.17 13.337-13.14 23.39-14.913 10.054-1.773 19.183.214 27.389 5.96 8.206 5.745 13.177 13.542 14.913 23.39 1.737 9.848-.268 18.875-6.014 27.081-5.745 8.206-13.645 13.195-23.698 14.967Z"/>
		</symbol>
		<use id="orders" xlink:href="#orders-comp" href="#orders-comp" class="icon-section" />
		<use id="orders-dm" xlink:href="#orders-comp" href="#orders-comp" class="icon-section" />
		<symbol id="orders-comp">
			<path class="icon" filter="url(#shadow)" d="M502.774 342.62c-4.562 6.516-10.793 10.471-18.692 11.863-7.899 1.393-15.107-.192-21.623-4.755l-135.395-94.804c-3.62-2.535-6.293-5.395-8.018-8.582-1.725-3.186-2.913-6.626-3.565-10.319l-16.442-93.249c-1.375-7.796.168-14.943 4.628-21.442 4.46-6.498 10.589-10.434 18.385-11.809l93.249-16.442c3.898-.688 7.7-.723 11.405-.107 3.705.616 7.367 2.191 10.987 4.726l134.617 93.99c6.757 4.731 10.799 11.158 12.126 19.281 1.326 8.122-.292 15.441-4.855 21.957L502.774 342.62Zm-22.499-16.024L557.39 216.85l-136.789-95.51-93.557 16.496 16.497 93.557 136.734 95.203ZM367.408 179.587c4.308-.76 7.73-2.95 10.265-6.57s3.422-7.585 2.662-11.893c-.723-4.104-2.895-7.423-6.515-9.958-3.62-2.535-7.585-3.422-11.893-2.662-4.104.723-7.423 2.895-9.958 6.515-2.534 3.62-3.44 7.482-2.717 11.585.76 4.309 2.95 7.731 6.57 10.266 3.62 2.534 7.482 3.44 11.586 2.717Z"/>
		</symbol>
		<use id="positions" xlink:href="#positions-comp" href="#positions-comp" class="icon-section" />
		<use id="positions-dm" xlink:href="#positions-comp" href="#positions-comp" class="icon-section" />
		<symbol id="positions-comp">
			<path class="icon" filter="url(#shadow)" d="m382.799 149.9-4.287-24.312c-1.339-7.591.264-14.696 4.809-21.315 4.545-6.62 10.613-10.598 18.204-11.936l48.625-8.574c7.591-1.339 14.654.325 21.188 4.99 6.535 4.665 10.471 10.794 11.81 18.385l4.287 24.312 49.24-8.682c7.796-1.375 14.953.219 21.469 4.782 6.516 4.563 10.444 10.64 11.782 18.231l25.505 144.644c1.339 7.591-.265 14.696-4.809 21.315-4.545 6.619-10.715 10.615-18.512 11.99l-203.116 35.815c-7.592 1.339-14.654-.325-21.189-4.99-6.534-4.666-10.471-10.794-11.809-18.385l-25.505-144.644c-1.338-7.591.274-14.645 4.836-21.161 4.563-6.516 10.64-10.444 18.231-11.782l49.241-8.683Zm28.005-4.938 48.625-8.574-4.287-24.312-48.625 8.574 4.287 24.312Zm146.383 94.136-74.476 13.132.706 4.001c.687 3.898-.068 7.416-2.265 10.554-2.197 3.137-5.244 5.05-9.142 5.737l-25.544 4.504c-4.103.723-7.672-.022-10.707-2.237-3.035-2.215-4.896-5.272-5.584-9.17l-.705-4.001-75.399 13.295 10.419 59.089 203.116-35.815-10.419-59.089Zm-110.121 19.735 18.158-3.202-3.202-18.157-18.157 3.201 3.201 18.158Zm-96.088-1.462 75.399-13.295-.706-4c-.687-3.899.068-7.416 2.265-10.554 2.197-3.137 5.244-5.05 9.142-5.737l25.544-4.504c3.898-.688 7.416.067 10.553 2.264 3.138 2.197 5.05 5.244 5.738 9.143l.705 4 74.476-13.132-12.481-70.783-203.116 35.815 12.481 70.783Z"/>
		</symbol>
		<use id="reports" xlink:href="#reports-comp" href="#reports-comp" class="icon-section" />
		<use id="reports-dm" xlink:href="#reports-comp" href="#reports-comp" class="icon-section" />
		<symbol id="reports-comp">
			<path class="icon" filter="url(#shadow)" d="m424.088 301.28 76.63-13.512c3.078-.542 5.41-2.011 6.998-4.407 1.587-2.395 2.109-5.131 1.567-8.209-.507-2.872-1.915-5.163-4.226-6.871-2.311-1.708-5.005-2.29-8.083-1.748L420.036 280.1c-3.283.579-5.666 2.057-7.151 4.434-1.485 2.377-1.974 5.002-1.468 7.874.543 3.078 1.97 5.471 4.281 7.179 2.311 1.708 5.107 2.272 8.39 1.693Zm-9.171-52.01 76.938-13.566c2.873-.507 5.154-1.966 6.844-4.38 1.69-2.413 2.263-5.159 1.721-8.236-.507-2.873-1.958-5.103-4.353-6.69-2.395-1.587-5.029-2.128-7.902-1.621l-77.246 13.62c-3.282.579-5.675 2.006-7.178 4.281-1.503 2.274-2.001 4.848-1.494 7.72.542 3.078 1.969 5.47 4.28 7.178 2.311 1.708 5.108 2.273 8.39 1.694Zm-19.549 117.683c-7.386 1.302-14.388-.319-21.007-4.864-6.619-4.544-10.598-10.612-11.936-18.204L326.61 140.769c-1.375-7.797.27-14.962 4.936-21.496 4.665-6.535 10.691-10.453 18.077-11.756l100.327-17.69c3.898-.687 7.727-.57 11.486.355 3.759.923 7.105 2.502 10.037 4.735l62.937 43.799c3.174 2.402 5.88 5.151 8.118 8.247 2.238 3.096 3.719 6.695 4.443 10.799l26.264 148.952c1.338 7.591-.376 14.663-5.144 21.215-4.768 6.553-10.845 10.48-18.231 11.783l-154.492 27.241Zm63.877-206.416-7.38-41.854-97.25 17.148 35.815 203.116 154.492-27.241-25.939-147.105-43.085 7.597c-4.309.759-7.972.083-10.988-2.029-3.017-2.113-4.905-5.323-5.665-9.632Z"/>
		</symbol>
		<use id="search" xlink:href="#search-comp" href="#search-comp" class="icon-section" />
		<use id="search-dm" xlink:href="#search-comp" href="#search-comp" class="icon-section" />
		<symbol id="search-comp">
			<path class="icon" filter="url(#shadow)" d="m555.294 316.541-85.074-59.569c-5.323 5.804-11.699 10.736-19.128 14.796-7.428 4.06-15.862 6.922-25.299 8.586-23.595 4.16-44.865-.392-63.81-13.658-18.946-13.266-30.463-31.491-34.551-54.675-4.088-23.184.501-44.249 13.767-63.195 13.266-18.945 31.491-30.462 54.675-34.55 23.184-4.088 44.249.501 63.194 13.767 18.946 13.266 30.463 31.491 34.551 54.675 1.664 9.437 1.841 18.238.53 26.403-1.311 8.164-3.915 16.186-7.815 24.066l86.052 59.714c3.174 2.402 5.104 5.553 5.791 9.451.688 3.898-.17 7.434-2.572 10.608-2.365 3.378-5.497 5.411-9.396 6.099-3.898.687-7.536-.152-10.915-2.518Zm-135.055-64.084c15.593-2.749 27.741-10.339 36.444-22.768 8.703-12.429 11.68-26.44 8.93-42.033-2.713-15.388-10.293-27.484-22.741-36.29-12.447-8.806-26.365-11.852-41.752-9.139-15.798 2.786-28.04 10.445-36.725 22.977-8.685 12.531-11.67 26.491-8.957 41.879 2.749 15.593 10.339 27.74 22.768 36.444 12.429 8.703 26.44 11.679 42.033 8.93Z"/>
		</symbol>
		<use id="history" xlink:href="#history-comp" href="#history-comp" class="icon-section" />
		<use id="history-dm" xlink:href="#history-comp" href="#history-comp" class="icon-section" />
		<symbol id="history-comp">
			<path class="icon" filter="url(#shadow)" d="M426.26 107.33c31.6-5.57 60.72.35 87.38 17.75 26.66 17.41 43.33 41.49 50.02 72.25l.54 3.08-27.7 4.88-.71-4c-5.9-22.65-18.85-40.31-38.85-52.96-20-12.66-41.9-16.89-65.7-12.69-12.1 2.13-23.16 6.62-33.17 13.46-10.01 6.84-18.37 15.19-25.09 25.05l14.77-2.61c2.87-.51 5.56.03 8.06 1.6 2.5 1.57 4.04 4 4.61 7.28.58 3.28-.04 6.09-1.85 8.42s-4.15 3.75-7.02 4.25l-44.01 7.76c-4.31.76-7.98.03-11.01-2.18s-4.91-5.37-5.64-9.48l-7.65-43.39c-.54-3.08-.06-5.75 1.44-8.03 1.5-2.27 3.79-3.68 6.87-4.23 3.08-.54 5.81-.02 8.21 1.57 2.39 1.59 3.86 3.92 4.41 7l3.26 18.46c9.02-13.65 20.3-25.21 33.87-34.69 13.56-9.48 28.55-15.66 44.96-18.56Zm17.31 159.23-31.47-21.75c-2.85-1.68-4.57-4.2-5.16-7.55-.59-3.35.13-6.48 2.18-9.39 1.93-2.52 4.55-4.17 7.89-4.94 3.33-.77 6.35-.21 9.05 1.68l19.08 13.56 33.51-47.4c2.04-2.91 4.74-4.66 8.1-5.25 3.36-.59 6.4.05 9.1 1.94 2.74 2.06 4.47 4.67 5.21 7.82.74 3.15 0 6.19-2.22 9.13l-41.46 59.72c-1.64 2.11-3.87 3.41-6.7 3.91s-5.2 0-7.1-1.48Zm124.15-39.88c-.35 14.98-3.53 29.77-9.38 43.56l-27.3-11.57a88.965 88.965 0 0 0 7.04-32.68l29.65.69Zm-52.51 95.8a118.76 118.76 0 0 0 31.83-31.57l-24.48-16.74a88.926 88.926 0 0 1-23.88 23.68l16.53 24.62Zm-19.06 11.79a118.707 118.707 0 0 1-43.88 7.26l.72-29.65c11.22.27 22.39-1.58 32.92-5.45l10.24 27.83Zm-112.18-11.01a118.89 118.89 0 0 0 41.26 16.99l5.94-29.05a89.168 89.168 0 0 1-30.96-12.75l-16.24 24.81Zm-36.76-38.21c-4.22-7.02-.75-15.84 6.74-19.15 7.49-3.31 16.15.17 20.65 7.01 3.55 5.39 7.69 10.4 12.35 14.92l-20.66 21.28c-7.39-7.17-13.8-15.27-19.08-24.06Z"/>
		</symbol>
		<animateTransform attributeName="transform" attributeType="XML" type="translate" dur="3s" begin="0s" repeatCount="indefinite" values="0 0; 0 16; 0 0" />
		<defs>
			<filter id="filter0_d_1_52" x="24.0479" y="285" width="846.159" height="110" filterUnits="userSpaceOnUse" color-interpolation-filters="sRGB">
				<feFlood flood-opacity="0" result="BackgroundImageFix"/>
				<feColorMatrix in="SourceAlpha" type="matrix" values="0 0 0 0 0 0 0 0 0 0 0 0 0 0 0 0 0 0 127 0" result="hardAlpha"/>
				<feOffset dy="-10"/>
				<feGaussianBlur stdDeviation="15"/>
				<feComposite in2="hardAlpha" operator="out"/>
				<feColorMatrix type="matrix" values="0 0 0 0 0.662745 0 0 0 0 0.752941 0 0 0 0 0.882353 0 0 0 0.15 0"/>
				<feBlend mode="normal" in2="BackgroundImageFix" result="effect1_dropShadow_1_52"/>
				<feBlend mode="normal" in="SourceGraphic" in2="effect1_dropShadow_1_52" result="shape"/>
			</filter>
			<linearGradient id="paint0_linear_1_52" x1="459.581" y1="325" x2="459.581" y2="5" gradientUnits="userSpaceOnUse">
				<stop class="sun-stop"/>
				<stop class="sun-stop" offset="1" stop-opacity="0"/>
			</linearGradient>
			<linearGradient id="paint1_linear_1_52" x1="330.988" y1="425" x2="659.657" y2="425" gradientUnits="userSpaceOnUse">
				<stop class="shadow-stop"/>
				<stop class="shadow-stop" offset="1" stop-opacity="0"/>
			</linearGradient>
			<filter id="shadow" color-interpolation-filters="sRGB">
				<feDropShadow class="icon-shadow" dx="-4" dy="4" flood-color="#83A2CE" flood-opacity="1" stdDeviation="0"/>
			</filter>
			<linearGradient id="plus-fill" x1="0%" y1="0%" x2="100%" y2="100%" gradientUnits="userSpaceOnUse">
				<stop class="fill-stop"/>
				<stop class="fill-stop"/>
			</linearGradient>
		</defs>
	</g>
	<symbol id="bg">
		<path d="M770 325C770 282.977 761.723 241.365 745.641 202.541C729.56 163.717 705.989 128.441 676.274 98.7258C646.559 69.0111 611.283 45.4401 572.459 29.3585C533.634 13.277 492.023 5 450 5C407.977 5 366.365 13.277 327.541 29.3586C288.717 45.4401 253.441 69.0111 223.726 98.7258C194.011 128.441 170.44 163.717 154.359 202.541C138.277 241.366 130 282.977 130 325L770 325Z" fill="url(#paint0_linear_1_52)"/>
		<mask id="mask0_1_52" style="mask-type:alpha" maskUnits="userSpaceOnUse" x="10" y="252" width="880" height="73">
			<rect x="10" y="252" width="880" height="73" fill="#D9D9D9"/>
		</mask>
		<g mask="url(#mask0_1_52)">
			<g filter="url(#filter0_d_1_52)">
				<rect x="54.0479" y="325" width="786.159" height="50" fill="white"/>
			</g>
		</g>
		<ellipse cx="490" cy="433" rx="165" ry="8" fill="url(#paint1_linear_1_52)" style="transform-origin: center;">
			<animateTransform attributeName="transform" attributeType="XML" type="scale" dur="3s" begin="0s" repeatCount="indefinite" values="1 1; 1.2 1; 1 1" />
		</ellipse>
		<path fill="url(#plus-fill)" d="M321.52 147.48V143H314.48V147.48H310V154.52H314.48V159H321.52V154.52H326V147.48H321.52Z"/>
		<path fill="url(#plus-fill)" d="M666.28 76.72V70H655.72V76.72H649V87.28H655.72V94H666.28V87.28H673V76.72H666.28Z"/>
		<path fill="url(#plus-fill)" d="M283.92 271.08V261H268.08V271.08H258V286.92H268.08V297H283.92V286.92H294V271.08H283.92Z"/>
		<path fill="url(#plus-fill)" d="M281.92 36.08V26H266.08V36.08H256V51.92H266.08V62H281.92V51.92H292V36.08H281.92Z"/>
		<path fill="url(#plus-fill)" d="M607.52 235.48V231H600.48V235.48H596V242.52H600.48V247H607.52V242.52H612V235.48H607.52Z"/>
		<path fill="url(#plus-fill)" d="M170.52 91.48V87H163.48V91.48H159V98.52H163.48V103H170.52V98.52H175V91.48H170.52Z"/>
		<path fill="url(#plus-fill)" d="M672.52 183.48V179H665.48V183.48H661V190.52H665.48V195H672.52V190.52H677V183.48H672.52Z"/>
	</symbol>
	<style>.icon-section{--icon-fill-color:#a9c0e1;display:none}.icon-section:target{display:inline}.icon-section[id$=-dm]:target{--icon-fill-color:#597092}.icon-section[id$=-dm]:target~symbol .icon{fill:#597092}.icon-section[id$=-dm]:target~defs .fill-stop{stop-color:#3a4f6f}.icon-section[id$=-dm]:target~defs .sun-stop{stop-color:#263a57}.icon-section[id$=-dm]:target~defs .shadow-stop{stop-color:#354760}.icon-section[id$=-dm]:target~defs .icon-shadow{flood-color:#151e2c}.icon{fill:var(--icon-fill-color,#a9c0e1)}.fill-stop{stop-color:#e4edfa}.sun-stop{stop-color:#eef5ff}.shadow-stop{stop-color:#dee9fa}.icon-shadow{flood-color:#83a2ce}</style>
</svg>
