<svg width="296" height="184" viewBox="0 0 296 184" fill="none" xmlns="http://www.w3.org/2000/svg">
<path style="mix-blend-mode:multiply" opacity="0.2" fill-rule="evenodd" clip-rule="evenodd" d="M315.818 182.426C315.818 182.844 315.652 183.244 315.357 183.539C315.062 183.834 314.662 184 314.244 184H273.756C273.338 184 272.938 183.834 272.643 183.539C272.348 183.244 272.182 182.844 272.182 182.426V159.393C272.182 158.975 272.016 158.575 271.721 158.28C271.426 157.985 271.026 157.819 270.608 157.819H247.574C247.156 157.819 246.756 157.653 246.461 157.358C246.166 157.063 246 156.662 246 156.245V115.756C246 115.338 246.166 114.938 246.461 114.643C246.756 114.348 247.156 114.182 247.574 114.182H270.608C271.026 114.182 271.426 114.016 271.721 113.721C272.016 113.426 272.182 113.026 272.182 112.608V89.5738C272.182 89.1564 272.348 88.7561 272.643 88.4609C272.938 88.1658 273.338 88 273.756 88H314.244C314.662 88 315.062 88.1658 315.357 88.4609C315.652 88.7561 315.818 89.1564 315.818 89.5738V112.608C315.818 113.026 315.984 113.426 316.279 113.721C316.574 114.016 316.974 114.182 317.392 114.182H340.426C340.844 114.182 341.244 114.348 341.539 114.643C341.834 114.938 342 115.338 342 115.756V156.245C342 156.662 341.834 157.063 341.539 157.358C341.244 157.653 340.844 157.819 340.426 157.819H317.392C316.974 157.819 316.574 157.985 316.279 158.28C315.984 158.575 315.818 158.975 315.818 159.393V182.426Z" fill="url(#paint0_linear_4934_19062)"/>
<path style="mix-blend-mode:multiply" opacity="0.2" fill-rule="evenodd" clip-rule="evenodd" d="M221.454 45.2459C221.454 45.4459 221.375 45.6377 221.234 45.7791C221.092 45.9206 220.9 46 220.7 46H201.3C201.1 46 200.908 45.9206 200.766 45.7791C200.625 45.6377 200.546 45.4459 200.546 45.2459V34.2089C200.546 34.0089 200.466 33.8171 200.325 33.6757C200.183 33.5343 199.991 33.4548 199.791 33.4548H188.754C188.554 33.4548 188.362 33.3754 188.221 33.2339C188.079 33.0925 188 32.9007 188 32.7007V13.2997C188 13.0997 188.079 12.9078 188.221 12.7664C188.362 12.625 188.554 12.5456 188.754 12.5456H199.791C199.991 12.5456 200.183 12.4661 200.325 12.3247C200.466 12.1833 200.546 11.9915 200.546 11.7915V0.754098C200.546 0.554099 200.625 0.362291 200.766 0.22087C200.908 0.0794488 201.1 0 201.3 0H220.7C220.9 0 221.092 0.0794488 221.234 0.22087C221.375 0.362291 221.454 0.554099 221.454 0.754098V11.7915C221.454 11.9915 221.534 12.1833 221.675 12.3247C221.817 12.4661 222.009 12.5456 222.209 12.5456H233.246C233.446 12.5456 233.638 12.625 233.779 12.7664C233.921 12.9078 234 13.0997 234 13.2997V32.7007C234 32.9007 233.921 33.0925 233.779 33.2339C233.638 33.3754 233.446 33.4548 233.246 33.4548H222.209C222.009 33.4548 221.817 33.5343 221.675 33.6757C221.534 33.8171 221.454 34.0089 221.454 34.2089V45.2459Z" fill="url(#paint1_linear_4934_19062)"/>
<path style="mix-blend-mode:multiply" opacity="0.2" fill-rule="evenodd" clip-rule="evenodd" d="M23.2727 164.475C23.2727 164.615 23.2174 164.748 23.119 164.846C23.0206 164.945 22.8872 165 22.7481 165H9.25194C9.11281 165 8.97937 164.945 8.88099 164.846C8.78262 164.748 8.72735 164.615 8.72735 164.475V156.798C8.72735 156.658 8.67208 156.525 8.5737 156.427C8.47532 156.328 8.34189 156.273 8.20276 156.273H0.52459C0.38546 156.273 0.252028 156.218 0.153648 156.119C0.0552688 156.021 0 155.887 0 155.748V142.252C0 142.113 0.0552688 141.979 0.153648 141.881C0.252028 141.783 0.38546 141.727 0.52459 141.727H8.20276C8.34189 141.727 8.47532 141.672 8.5737 141.574C8.67208 141.475 8.72735 141.342 8.72735 141.203V133.525C8.72735 133.385 8.78262 133.252 8.88099 133.154C8.97937 133.055 9.11281 133 9.25194 133H22.7481C22.8872 133 23.0206 133.055 23.119 133.154C23.2174 133.252 23.2727 133.385 23.2727 133.525V141.203C23.2727 141.342 23.3279 141.475 23.4263 141.574C23.5247 141.672 23.6581 141.727 23.7972 141.727H31.4754C31.6145 141.727 31.748 141.783 31.8463 141.881C31.9447 141.979 32 142.113 32 142.252V155.748C32 155.887 31.9447 156.021 31.8463 156.119C31.748 156.218 31.6145 156.273 31.4754 156.273H23.7972C23.6581 156.273 23.5247 156.328 23.4263 156.427C23.3279 156.525 23.2727 156.658 23.2727 156.798V164.475Z" fill="url(#paint2_linear_4934_19062)"/>
<path style="mix-blend-mode:multiply" opacity="0.2" fill-rule="evenodd" clip-rule="evenodd" d="M75.4545 115.607C75.4545 115.711 75.413 115.811 75.3393 115.885C75.2655 115.959 75.1654 116 75.061 116H64.939C64.8346 116 64.7345 115.959 64.6607 115.885C64.587 115.811 64.5455 115.711 64.5455 115.607V109.848C64.5455 109.744 64.5041 109.644 64.4303 109.57C64.3565 109.496 64.2564 109.455 64.1521 109.455H58.3934C58.2891 109.455 58.189 109.413 58.1152 109.339C58.0415 109.266 58 109.166 58 109.061V98.939C58 98.8346 58.0415 98.7345 58.1152 98.6607C58.189 98.587 58.2891 98.5455 58.3934 98.5455H64.1521C64.2564 98.5455 64.3565 98.5041 64.4303 98.4303C64.5041 98.3565 64.5455 98.2564 64.5455 98.1521V92.3934C64.5455 92.2891 64.587 92.189 64.6607 92.1152C64.7345 92.0415 64.8346 92 64.939 92H75.061C75.1654 92 75.2655 92.0415 75.3393 92.1152C75.413 92.189 75.4545 92.2891 75.4545 92.3934V98.1521C75.4545 98.2564 75.4959 98.3565 75.5697 98.4303C75.6435 98.5041 75.7436 98.5455 75.8479 98.5455H81.6066C81.7109 98.5455 81.811 98.587 81.8848 98.6607C81.9585 98.7345 82 98.8346 82 98.939V109.061C82 109.166 81.9585 109.266 81.8848 109.339C81.811 109.413 81.7109 109.455 81.6066 109.455H75.8479C75.7436 109.455 75.6435 109.496 75.5697 109.57C75.4959 109.644 75.4545 109.744 75.4545 109.848V115.607Z" fill="url(#paint3_linear_4934_19062)"/>
<defs>
<linearGradient id="paint0_linear_4934_19062" x1="294" y1="88" x2="294" y2="189.902" gradientUnits="userSpaceOnUse">
<stop stop-color="#0054FC"/>
<stop offset="1" stop-color="#0035A0" stop-opacity="0"/>
</linearGradient>
<linearGradient id="paint1_linear_4934_19062" x1="211" y1="0" x2="211" y2="48.8279" gradientUnits="userSpaceOnUse">
<stop stop-color="#0054FC"/>
<stop offset="1" stop-color="#0035A0" stop-opacity="0"/>
</linearGradient>
<linearGradient id="paint2_linear_4934_19062" x1="16" y1="133" x2="16" y2="166.967" gradientUnits="userSpaceOnUse">
<stop stop-color="#0054FC"/>
<stop offset="1" stop-color="#0035A0" stop-opacity="0"/>
</linearGradient>
<linearGradient id="paint3_linear_4934_19062" x1="70" y1="92" x2="70" y2="117.475" gradientUnits="userSpaceOnUse">
<stop stop-color="#0054FC"/>
<stop offset="1" stop-color="#0035A0" stop-opacity="0"/>
</linearGradient>
</defs>
</svg>
